<?xml version="1.0" standalone="no"?>
<!DOCTYPE svg PUBLIC "-//W3C//DTD SVG 20010904//EN"
 "http://www.w3.org/TR/2001/REC-SVG-20010904/DTD/svg10.dtd">
<svg version="1.0" xmlns="http://www.w3.org/2000/svg"
 width="320.000000pt" height="320.000000pt" viewBox="0 0 320.000000 320.000000"
 preserveAspectRatio="xMidYMid meet">
<metadata>
Created by potrace 1.14, written by Peter Selinger 2001-2017
</metadata>
<g transform="translate(0.000000,320.000000) scale(0.100000,-0.100000)"
fill="#000000" stroke="none">
<path d="M1370 3005 c-310 -46 -573 -180 -796 -403 -217 -218 -342 -476 -384
-797 -9 -67 -6 -321 5 -375 31 -165 87 -314 170 -456 72 -122 120 -182 233
-292 213 -208 492 -343 783 -379 81 -10 315 -10 394 0 72 10 227 48 308 77 60
21 69 25 124 54 31 16 32 15 125 -28 51 -24 140 -65 198 -90 58 -26 112 -51
121 -55 13 -8 302 -139 477 -217 l53 -24 -43 57 c-23 32 -84 114 -136 183 -51
69 -102 136 -112 150 -10 14 -55 75 -100 135 -45 61 -99 133 -120 161 l-38 51
32 34 c80 86 164 228 222 372 74 184 94 298 89 522 -2 152 -6 182 -33 287 -68
257 -182 457 -362 638 -172 173 -402 304 -635 366 -16 4 -32 8 -35 9 -3 0 -27
5 -55 10 -27 4 -57 10 -65 12 -42 11 -344 10 -420 -2z m380 -510 c59 -12 183
-63 249 -103 125 -75 252 -207 313 -324 35 -68 76 -180 84 -232 4 -23 8 -52
10 -66 14 -86 1 -279 -24 -365 -15 -50 -54 -137 -87 -192 l-31 -51 -244 99
c-135 55 -255 104 -267 109 -75 31 -241 98 -256 103 -17 6 -16 3 4 -31 12 -20
35 -55 49 -77 15 -22 30 -47 33 -55 4 -8 17 -31 30 -51 21 -35 236 -387 244
-401 5 -9 -90 -37 -152 -45 -224 -25 -436 24 -598 141 -169 120 -281 283 -333
481 -25 98 -26 344 0 430 1 6 8 30 15 55 22 77 83 191 141 265 120 151 277
252 464 301 76 19 111 22 206 19 63 -1 131 -6 150 -10z"/>
</g>
</svg>
