<?xml version="1.0" encoding="utf-8"?>
<!-- Generator: Adobe Illustrator 18.1.1, SVG Export Plug-In . SVG Version: 6.00 Build 0)  -->
<svg version="1.1" id="Layer_1" xmlns="http://www.w3.org/2000/svg" xmlns:xlink="http://www.w3.org/1999/xlink" x="0px" y="0px"
	 viewBox="0 0 80 80" enable-background="new 0 0 80 80" xml:space="preserve">
<path fill="#FFFFFF" d="M63.8,59.8c2.6-2.9,4.7-6.1,6.1-9.7h0c0.8-2,1.5-4.1,1.9-6.2c0.4-2.2,0.7-4.4,0.7-6.6
	c0-3.4-0.5-6.8-1.6-10.1c-1.7-5.4-4.6-10.2-8.7-14.2c-1.6-1.6-3.4-3-5.3-4.2C51.1,4.9,44.6,3,37.5,3C30.3,3,23.8,4.9,18,8.7
	c-1.9,1.3-3.7,2.7-5.3,4.2c-5,4.9-8.2,10.7-9.6,17.5c-0.5,2.5-0.7,4.9-0.7,7.2c0,6.7,2,13,5.9,18.7c1.3,2,2.8,3.7,4.4,5.2
	c1.6,1.5,3.3,2.9,5.2,4.2c4.9,3.2,10.3,5.1,16,5.5c1.1,0.1,2.2,0.2,3.3,0.2c4.6,0,9.1-0.9,13.5-2.6c0.9-0.3,2-0.8,3.1-1.4l23.5,10.7
	L63.8,59.8z M58.3,37.5c0,3.8-0.9,7.4-2.8,10.5c-0.3,0.6-0.7,1.1-1,1.6l-19.6-8l9.6,15.8c-1.5,0.6-2.9,0.9-4.4,1
	c-0.8,0.1-1.5,0.1-2.4,0.1c-6,0-11.1-2-15.1-6.1c-4-4.1-6-9.1-6-15.2c0-4.4,1.2-8.4,3.5-11.9c1.6-2.4,3.5-4.3,5.8-5.9
	c2.3-1.5,4.8-2.6,7.5-3.2c1.4-0.3,2.8-0.4,4.2-0.4c4,0,7.8,1.2,11.4,3.7c2.3,1.6,4.2,3.5,5.9,5.9c2.1,3.3,3.3,7.1,3.4,11.3V37.5z"/>
</svg>
