<?xml version="1.0" encoding="utf-8"?>
<!-- Generator: Adobe Illustrator 18.1.1, SVG Export Plug-In . SVG Version: 6.00 Build 0)  -->
<svg version="1.1" id="Layer_1" xmlns="http://www.w3.org/2000/svg" xmlns:xlink="http://www.w3.org/1999/xlink" x="0px" y="0px"
	 viewBox="0 14.2 566.9 566.9" enable-background="new 0 14.2 566.9 566.9" xml:space="preserve">
<linearGradient id="SVGID_1_" gradientUnits="userSpaceOnUse" x1="331.513" y1="156.5365" x2="-25.8204" y2="429.3973" gradientTransform="matrix(1.0501 0 0 1.0501 123.3145 -0.7319)">
	<stop  offset="0" style="stop-color:#FFAB62"/>
	<stop  offset="0.6992" style="stop-color:#FF3D90"/>
	<stop  offset="1" style="stop-color:#DA32C0"/>
</linearGradient>
<path fill="url(#SVGID_1_)" d="M438.3,182.1c0,15.6-12.5,28.1-28.1,28.1s-28.1-12.5-28.1-28.1s12.5-28.1,28.1-28.1
	C425.7,152.4,438.3,166.5,438.3,182.1z M519.5,307.2c0,64.1,0,71.9-1.6,96.9c-1.6,25-4.7,42.2-10.9,57.9
	c-6.2,15.6-14.1,28.1-26.6,42.2c-12.5,12.5-26.6,21.8-42.2,26.6c-15.6,6.3-32.9,9.3-57.9,10.9c-25,1.6-32.9,1.6-96.9,1.6
	s-71.9,0-96.9-1.6c-25-1.6-42.2-4.7-57.9-10.9c-15.6-6.3-28.1-14.1-42.2-26.6c-12.5-12.5-21.8-26.6-26.6-42.2
	c-6.3-15.6-9.3-32.9-10.9-57.9c-1.6-25-1.6-32.9-1.6-96.9s0-71.9,1.6-96.9s4.7-42.2,10.9-57.9c6.3-15.6,14.1-28.1,26.6-42.2
	C99,97.7,113,88.3,128.7,83.6c15.6-6.3,32.9-9.3,57.9-10.9c25-1.6,32.9-1.6,96.9-1.6s71.9,0,96.9,1.6c25,1.6,42.2,4.7,57.9,10.9
	c15.6,6.3,28.1,14.1,42.2,26.6c12.5,12.5,21.8,26.6,26.6,42.2c6.3,15.6,9.3,32.9,10.9,57.9C519.5,235.2,519.5,243.1,519.5,307.2z
	 M477.4,307.2c0-62.5,0-70.4-1.6-95.3c-1.6-23.4-4.7-35.9-7.8-43.8c-4.7-10.9-9.3-18.8-17.2-26.6c-7.8-7.8-15.6-14.1-26.6-17.2
	c-7.8-3.2-20.3-7.8-43.8-7.8c-25-1.6-32.9-1.6-95.3-1.6s-70.4,0-95.3,1.6c-21.8,0-34.3,4.7-43.8,7.8c-10.9,4.7-18.8,9.3-26.6,17.2
	c-7.8,7.8-14.1,15.6-17.2,26.6c-3.2,7.8-7.8,20.3-7.8,43.8c-1.6,25-1.6,32.9-1.6,95.3s0,70.4,1.6,95.3c1.6,23.4,4.7,35.9,7.8,43.8
	c4.7,10.9,9.3,18.8,17.2,26.6c7.8,7.8,15.6,14.1,26.6,17.2c7.8,3.2,20.3,7.8,43.8,7.8c25,1.6,32.9,1.6,95.3,1.6s70.4,0,95.3-1.6
	c23.4-1.6,35.9-4.7,43.8-7.8c10.9-4.7,18.8-9.3,26.6-17.2c7.8-7.8,14.1-15.6,17.2-26.6c3.2-7.8,7.8-20.3,7.8-43.8
	C477.4,377.4,477.4,369.6,477.4,307.2z M405.5,307.2c0,67.2-54.7,120.3-120.3,120.3s-120.3-54.7-120.3-120.3
	c0-67.2,54.7-120.3,120.3-120.3S405.5,240,405.5,307.2z M363.3,307.2c0-43.8-34.3-78.1-78.1-78.1S207,263.4,207,307.2
	s34.3,78.1,78.1,78.1C328.9,385.3,363.3,350.8,363.3,307.2z"/>
</svg>
