<?xml version="1.0" encoding="utf-8"?>
<!-- Generator: Adobe Illustrator 18.1.1, SVG Export Plug-In . SVG Version: 6.00 Build 0)  -->
<svg version="1.1" id="Layer_1" xmlns="http://www.w3.org/2000/svg" xmlns:xlink="http://www.w3.org/1999/xlink" x="0px" y="0px"
	 viewBox="0 14.2 566.9 566.9" enable-background="new 0 14.2 566.9 566.9" xml:space="preserve">
<linearGradient id="SVGID_1_" gradientUnits="userSpaceOnUse" x1="384.9052" y1="497.1288" x2="-123.4287" y2="203.6421" gradientTransform="matrix(1.0501 0 0 -1.0501 123.3195 624.3506)">
	<stop  offset="0" style="stop-color:#FFAB62"/>
	<stop  offset="0.6992" style="stop-color:#FF3D90"/>
	<stop  offset="1" style="stop-color:#DA32C0"/>
</linearGradient>
<path fill="url(#SVGID_1_)" d="M526.2,151.2c-10.9,15.6-25,28.1-40.6,39.1c0,17.2,0,34.3-1.6,51.6c-4.7,34.3-12.5,67.2-26.6,98.5
	c-14.1,32.9-32.9,60.9-56.3,87.5c-40.6,43.8-87.5,71.9-143.8,84.4c-18.8,4.7-39.1,6.3-57.9,7.8c-60.9,1.6-115.6-14.1-167.2-46.8
	c0,0-1.6-1.6-3.2-1.6c35.9,4.7,71.9-1.6,104.7-15.6c17.2-7.8,34.3-17.2,50-31.3c-54.7-1.6-89-43.8-96.9-76.5
	c15.6,3.2,29.7,3.2,45.4-1.6c0,0,0,0,1.6,0c-29.7-7.8-51.6-23.4-68.8-50c-10.8-17.4-15.5-37.7-15.5-58c14.1,7.8,29.7,12.5,46.8,14.1
	c-21.8-17.2-37.5-39.1-43.8-67.2c-7.8-31.3-3.2-57.9,9.3-82.8C118.1,173,190,212.1,277.5,218.3c0-4.7-1.6-7.8-1.6-12.5
	c-3.2-26.6,1.6-50,15.6-71.9c17.2-28.1,40.6-45.4,70.4-50c35.9-6.3,67.2,4.7,93.8,32.9c23.4-4.7,43.8-12.5,64.1-25h1.6l0,0
	c-7.8,25-23.4,45.4-45.4,59.4c20.3-1.6,39.1-7.8,57.9-17.2l0,0C534,140.3,530.8,146.5,526.2,151.2z"/>
</svg>
